<svg width="165" height="70" xmlns="http://www.w3.org/2000/svg"><path d="M19.105 21.75 1.737 39.25l17.368 17.5M53.842 21.75l17.368 17.5-17.368 17.5" stroke="#000" stroke-width="2" stroke-linecap="round" stroke-linejoin="round"/><path d="M42.613 8.825 27.7 64.905a1.417 1.417 0 0 1-1.736 1.01 1.43 1.43 0 0 1-1.003-1.749l14.914-56.08a1.417 1.417 0 0 1 1.737-1.011 1.43 1.43 0 0 1 1.002 1.75Z"/><path d="M39.874 8.085a1.417 1.417 0 0 1 1.737-1.01 1.43 1.43 0 0 1 1.002 1.75l-1.816 6.83-2.74-.74 1.817-6.83Z"/><path d="m44.628 12.29 5.478 1.478M30.933 8.592l5.478 1.479M34.121 2.12l2.845 4.916M30.545 15.569l4.903-2.825M43.9 15.026l2.844 4.917M45.418 9.318l4.903-2.825" stroke="#000" stroke-width="1.5" stroke-linecap="round"/><path d="M95.554 26.376c-1.445 0-2.751-.322-3.918-.966a7.163 7.163 0 0 1-2.73-2.667c-.654-1.148-.98-2.429-.98-3.843 0-1.414.326-2.688.98-3.822a7.078 7.078 0 0 1 2.75-2.688c1.168-.644 2.474-.966 3.919-.966 1.084 0 2.084.182 3.001.546a6.227 6.227 0 0 1 2.335 1.596l-.98.987c-1.14-1.162-2.578-1.743-4.314-1.743-1.154 0-2.203.266-3.148.798a5.884 5.884 0 0 0-2.23 2.184c-.528.924-.792 1.96-.792 3.108 0 1.148.264 2.184.792 3.108a5.884 5.884 0 0 0 2.23 2.184c.945.532 1.994.798 3.148.798 1.75 0 3.188-.588 4.314-1.764l.98.987a6.406 6.406 0 0 1-2.356 1.617c-.917.364-1.917.546-3 .546Zm12.324-.021c-1.056 0-2.007-.238-2.855-.714a5.342 5.342 0 0 1-2.001-2.016c-.486-.854-.729-1.82-.729-2.898s.243-2.044.729-2.898a5.19 5.19 0 0 1 2.001-1.995c.848-.476 1.799-.714 2.855-.714s2.008.238 2.856.714a5.052 5.052 0 0 1 1.98 1.995c.486.854.729 1.82.729 2.898s-.243 2.044-.729 2.898a5.198 5.198 0 0 1-1.98 2.016c-.848.476-1.8.714-2.856.714Zm0-1.323c.779 0 1.473-.175 2.085-.525a3.777 3.777 0 0 0 1.459-1.533c.347-.658.521-1.407.521-2.247 0-.84-.174-1.589-.521-2.247a3.639 3.639 0 0 0-1.459-1.512c-.612-.364-1.306-.546-2.085-.546-.778 0-1.479.182-2.105.546a3.817 3.817 0 0 0-1.459 1.512c-.347.658-.521 1.407-.521 2.247 0 .84.174 1.589.521 2.247a3.968 3.968 0 0 0 1.459 1.533c.626.35 1.327.525 2.105.525Zm18.591-14.364V26.25h-1.418v-2.184a4.505 4.505 0 0 1-1.771 1.701c-.723.392-1.543.588-2.46.588-1.028 0-1.959-.238-2.793-.714a5.093 5.093 0 0 1-1.959-1.995c-.472-.854-.708-1.827-.708-2.919s.236-2.065.708-2.919a4.949 4.949 0 0 1 1.959-1.974c.834-.476 1.765-.714 2.793-.714.89 0 1.689.189 2.397.567a4.476 4.476 0 0 1 1.772 1.617v-6.636h1.48Zm-5.524 14.364c.765 0 1.452-.175 2.064-.525a3.777 3.777 0 0 0 1.459-1.533c.361-.658.542-1.407.542-2.247 0-.84-.181-1.589-.542-2.247a3.639 3.639 0 0 0-1.459-1.512c-.612-.364-1.299-.546-2.064-.546-.778 0-1.479.182-2.105.546a3.817 3.817 0 0 0-1.459 1.512c-.347.658-.521 1.407-.521 2.247 0 .84.174 1.589.521 2.247a3.968 3.968 0 0 0 1.459 1.533c.626.35 1.327.525 2.105.525Zm9.645-9.828h1.479V26.25h-1.479V15.204Zm.75-2.415c-.306 0-.563-.105-.771-.315a1.033 1.033 0 0 1-.313-.756c0-.28.104-.525.313-.735.208-.21.465-.315.771-.315s.563.105.771.315a.942.942 0 0 1 .313.714c0 .308-.104.567-.313.777-.208.21-.465.315-.771.315Zm10.433 2.331c1.375 0 2.466.406 3.272 1.218.82.798 1.23 1.967 1.23 3.507v6.405h-1.48v-6.258c0-1.148-.285-2.023-.855-2.625-.569-.602-1.382-.903-2.438-.903-1.181 0-2.119.357-2.814 1.071-.681.7-1.021 1.673-1.021 2.919v5.796h-1.48V15.204h1.417v2.037a4.073 4.073 0 0 1 1.668-1.554c.722-.378 1.556-.567 2.501-.567Zm18.71.084v9.702c0 1.876-.459 3.262-1.376 4.158-.903.91-2.272 1.365-4.106 1.365a9.04 9.04 0 0 1-2.897-.462c-.903-.294-1.639-.707-2.209-1.239l.75-1.134c.528.476 1.168.847 1.918 1.113a7.237 7.237 0 0 0 2.397.399c1.389 0 2.41-.329 3.063-.987.654-.644.98-1.652.98-3.024v-1.407a4.452 4.452 0 0 1-1.813 1.596c-.737.364-1.556.546-2.46.546-1.028 0-1.966-.224-2.813-.672a5.207 5.207 0 0 1-1.98-1.911c-.473-.826-.709-1.757-.709-2.793 0-1.036.236-1.96.709-2.772a5.054 5.054 0 0 1 1.98-1.89c.833-.448 1.771-.672 2.813-.672.931 0 1.772.189 2.522.567a4.557 4.557 0 0 1 1.814 1.638v-2.121h1.417Zm-5.607 9.303c.792 0 1.508-.168 2.147-.504a3.706 3.706 0 0 0 1.48-1.449c.361-.616.542-1.316.542-2.1s-.181-1.477-.542-2.079a3.57 3.57 0 0 0-1.48-1.428c-.625-.35-1.341-.525-2.147-.525-.792 0-1.507.168-2.146.504a3.73 3.73 0 0 0-1.48 1.428c-.348.616-.521 1.316-.521 2.1s.173 1.484.521 2.1a3.88 3.88 0 0 0 1.48 1.449c.639.336 1.354.504 2.146.504ZM135.399 41.043c-.292.43-.617.947-.977 1.548a61.264 61.264 0 0 0-1.15 2.02 38.13 38.13 0 0 0-1.028 1.99 80.299 80.299 0 0 0-.956 2.081 60.709 60.709 0 0 0-.845 1.98 113.09 113.09 0 0 0-1.119 2.83c-.109.286-.163.433-.163.44-.068.171-.19.256-.367.256a.363.363 0 0 1-.234-.082.424.424 0 0 1-.132-.225c0-.007-.034-.15-.102-.43a78.82 78.82 0 0 0-.254-1.139 366.63 366.63 0 0 0-.377-1.64c-.135-.623-.281-1.269-.437-1.938-.15-.677-.302-1.361-.458-2.051-.156-.69-.302-1.347-.438-1.97a39.356 39.356 0 0 1-1.374 3.436 20.102 20.102 0 0 1-1.404 2.594 10.946 10.946 0 0 1-1.496 1.846 7.313 7.313 0 0 1-1.608 1.21c-.556.3-1.143.516-1.761.646-.61.13-1.258.195-1.943.195-.353 0-.73-.041-1.13-.123a5.96 5.96 0 0 1-1.191-.36 6.314 6.314 0 0 1-1.13-.614 4.664 4.664 0 0 1-.956-.872 4.195 4.195 0 0 1-.662-1.149 4.05 4.05 0 0 1-.244-1.435c0-.554.116-1.06.346-1.518.231-.465.543-.861.937-1.19a4.325 4.325 0 0 1 1.363-.778 4.912 4.912 0 0 1 1.649-.277c.42 0 .797.037 1.129.113.34.068.638.157.896.266.258.11.478.23.661.359.184.13.336.25.458.359.123.11.211.205.265.287a.508.508 0 0 0 .092.113c.04.075.061.147.061.215a.393.393 0 0 1-.112.267.34.34 0 0 1-.275.123.38.38 0 0 1-.326-.175l-.163-.184c-.101-.123-.268-.257-.498-.4a3.99 3.99 0 0 0-.896-.39c-.359-.116-.8-.174-1.323-.174-.475 0-.926.075-1.353.226a3.43 3.43 0 0 0-1.109.615 3.107 3.107 0 0 0-.754.953 2.623 2.623 0 0 0-.274 1.2c0 .43.071.824.213 1.18.143.355.333.673.57.953.238.28.513.523.825.728.312.205.637.376.977.513.339.13.678.229 1.017.297.346.062.672.092.977.092.516 0 1.018-.037 1.506-.112a5.687 5.687 0 0 0 1.456-.452c.481-.218.953-.52 1.414-.902.462-.383.919-.882 1.374-1.497.455-.615.902-1.357 1.343-2.225.448-.868.896-1.894 1.344-3.076.136-.356.268-.739.397-1.149.129-.41.261-.824.397-1.24a25.06 25.06 0 0 1-.255-1.539 9.919 9.919 0 0 1-.071-1.056c0-.3.024-.54.071-.717.048-.178.109-.312.183-.4a.445.445 0 0 1 .245-.175.707.707 0 0 1 .478 0 .458.458 0 0 1 .234.185c.075.089.136.222.183.4.048.178.071.417.071.718 0 .328-.03.707-.091 1.138-.061.43-.153.906-.275 1.425.088.417.19.882.305 1.395.116.512.234 1.045.356 1.6l.377 1.68.377 1.682c.122.547.237 1.07.346 1.57.115.498.22.95.315 1.353.183-.465.407-1.026.672-1.682.264-.663.56-1.364.885-2.102.326-.745.668-1.5 1.028-2.266.366-.772.74-1.5 1.119-2.184a41.416 41.416 0 0 1 1.476-2.492c.448-.697.835-1.271 1.16-1.722.326-.452.58-.783.763-.995.19-.219.292-.338.306-.359a.37.37 0 0 1 .275-.113c.115 0 .207.041.274.123a.365.365 0 0 1 .082.41c0 .007-.041.11-.122.308-.075.191-.173.458-.295.8a38.82 38.82 0 0 0-.387 1.19c-.143.45-.282.94-.417 1.466-.136.52-.258 1.066-.367 1.64a18.36 18.36 0 0 0-.275 2.523c-.013.28-.02.564-.02.85 0 .452.02.907.061 1.365.041.458.109.898.204 1.322.095.424.224.824.386 1.2.163.37.363.694.601.974.237.28.519.506.844.677.333.17.716.263 1.151.277a.318.318 0 0 1 .254.143.41.41 0 0 1 .102.267.357.357 0 0 1-.112.256.361.361 0 0 1-.265.113c-.109 0-.217-.01-.326-.03a3.602 3.602 0 0 1-1.292-.421 3.824 3.824 0 0 1-.967-.8 4.661 4.661 0 0 1-.682-1.087 7.787 7.787 0 0 1-.427-1.312 10.737 10.737 0 0 1-.234-1.446 18.907 18.907 0 0 1 .03-3.353 23.6 23.6 0 0 1 .245-1.774c.101-.581.22-1.142.356-1.682.135-.54.275-1.042.417-1.507Zm11.714 10.346-.173.349c-.082.17-.19.369-.326.595a8.34 8.34 0 0 1-.458.707 4.717 4.717 0 0 1-.59.677 3.34 3.34 0 0 1-.703.513c-.251.13-.515.194-.793.194a1.41 1.41 0 0 1-.998-.38 2.234 2.234 0 0 1-.58-.953c-.23.39-.505.701-.824.933-.319.226-.638.339-.957.339-.251 0-.478-.045-.682-.133a1.565 1.565 0 0 1-.519-.39 1.954 1.954 0 0 1-.335-.595 2.328 2.328 0 0 1-.112-.738c0-.533.088-1.002.264-1.405.183-.41.414-.752.692-1.025a2.85 2.85 0 0 1 .916-.615c.339-.137.665-.206.977-.206.21 0 .404.031.58.093.177.054.326.116.448.184.129.069.227.134.295.195l.112.092a.424.424 0 0 1 .112.277.4.4 0 0 1-.112.277.361.361 0 0 1-.264.113.371.371 0 0 1-.275-.113.89.89 0 0 0-.092-.072.96.96 0 0 0-.193-.123 1.383 1.383 0 0 0-.295-.102 1.26 1.26 0 0 0-.377-.052c-.21 0-.434.048-.671.144a1.87 1.87 0 0 0-.652.451 2.492 2.492 0 0 0-.499.759c-.128.3-.193.66-.193 1.077 0 .13.014.263.041.4.027.13.074.249.142.358.068.11.16.199.275.267a.826.826 0 0 0 .428.102c.122 0 .261-.04.417-.123a1.46 1.46 0 0 0 .458-.379c.149-.17.281-.386.397-.646.122-.26.206-.567.254-.923a.365.365 0 0 1 .132-.236.38.38 0 0 1 .265-.102c.095 0 .176.038.244.112.075.076.115.161.122.257.007.13.021.314.041.554.02.232.064.465.132.697.075.232.183.434.326.605.142.17.339.256.59.256a.96.96 0 0 0 .479-.133c.162-.089.318-.205.468-.349.156-.15.302-.318.437-.502.143-.191.272-.383.387-.574a7.77 7.77 0 0 0 .305-.554c.089-.178.163-.331.224-.461a.407.407 0 0 1 .143-.175.405.405 0 0 1 .213-.061c.116 0 .207.044.275.133.075.082.112.17.112.267a.37.37 0 0 1-.03.143Zm2.981 3.866c1.276-1.675 2.161-3.066 2.657-4.173a.357.357 0 0 1 .335-.226c.116 0 .211.041.285.123a.364.364 0 0 1 .082.41c-.299.684-.723 1.446-1.272 2.287-.55.84-1.245 1.79-2.087 2.85 0 .431.004.862.01 1.292.007.431.011.903.011 1.416 0 .512-.014 1.018-.041 1.517-.02.506-.061.984-.122 1.436a9.058 9.058 0 0 1-.254 1.26c-.102.39-.238.725-.408 1.006-.162.287-.363.509-.6.666a1.384 1.384 0 0 1-.824.246c-.455 0-.804-.174-1.049-.523-.244-.348-.366-.844-.366-1.487 0-.341.031-.714.092-1.117.067-.397.162-.807.285-1.23.122-.425.268-.855.437-1.293.177-.43.37-.85.58-1.261.211-.41.438-.803.682-1.18.251-.375.516-.717.794-1.025.007-.478.01-.953.01-1.425.007-.471.017-.906.031-1.302-.204.26-.448.465-.733.615-.278.15-.556.226-.834.226-.238 0-.455-.045-.652-.133a1.498 1.498 0 0 1-.488-.39 1.914 1.914 0 0 1-.316-.595 2.356 2.356 0 0 1-.112-.738c0-.533.088-1.002.265-1.405.183-.41.414-.752.692-1.025a2.84 2.84 0 0 1 .916-.615c.339-.137.665-.206.977-.206.21 0 .403.028.58.082.176.055.325.117.447.185a1.488 1.488 0 0 1 .408.297.404.404 0 0 1 .112.277.404.404 0 0 1-.112.277.362.362 0 0 1-.265.113.42.42 0 0 1-.275-.113 3.926 3.926 0 0 0-.112-.082.731.731 0 0 0-.173-.123.98.98 0 0 0-.254-.103 1.265 1.265 0 0 0-.346-.04c-.204 0-.428.047-.672.143a1.989 1.989 0 0 0-.682.43c-.21.199-.386.455-.529.77-.142.307-.213.68-.213 1.117 0 .329.071.595.213.8.143.198.363.297.662.297a.96.96 0 0 0 .447-.123c.163-.081.319-.208.469-.379.149-.17.278-.386.386-.646a3.37 3.37 0 0 0 .245-.923.357.357 0 0 1 .132-.236.377.377 0 0 1 .264-.102.31.31 0 0 1 .265.123.422.422 0 0 1 .102.277l-.01.318a58.56 58.56 0 0 0-.021.8c-.006.334-.017.724-.03 1.168l-.021 1.395Zm-.773 2.245c-.319.445-.607.927-.865 1.446a13.755 13.755 0 0 0-.661 1.59c-.184.533-.326 1.049-.428 1.548a7.423 7.423 0 0 0-.143 1.353c0 .253.021.455.062.606.047.15.101.266.162.348a.516.516 0 0 0 .214.164.712.712 0 0 0 .224.041c.21 0 .393-.085.55-.256.156-.171.288-.4.396-.687.109-.28.197-.605.265-.974.068-.37.119-.752.153-1.149.034-.39.057-.78.071-1.169.014-.39.02-.748.02-1.076v-.882c0-.294-.006-.595-.02-.903Zm5.099-11.3c0 .26-.092.483-.275.667a.884.884 0 0 1-.652.267.916.916 0 0 1-.661-.267.932.932 0 0 1-.265-.666c0-.13.024-.25.072-.36a.898.898 0 0 1 .193-.297.961.961 0 0 1 .295-.205.95.95 0 0 1 .723 0 .828.828 0 0 1 .295.205.824.824 0 0 1 .203.298c.048.11.072.229.072.359Zm-1.649 6.01c0-.985.061-1.966.183-2.944a.427.427 0 0 1 .122-.245.386.386 0 0 1 .285-.113c.102 0 .187.04.255.123a.388.388 0 0 1 .101.266c0 .041-.01.165-.03.37-.014.204-.034.45-.061.738-.021.28-.041.58-.061.902a19.69 19.69 0 0 0-.021.872c0 .362.034.656.102.881.075.22.166.39.275.513a.882.882 0 0 0 .356.246c.129.041.251.062.366.062.19 0 .387-.069.591-.205.203-.137.41-.328.62-.574.218-.247.435-.54.652-.882.217-.349.431-.735.641-1.159a.349.349 0 0 1 .142-.154.358.358 0 0 1 .204-.061c.108 0 .197.04.265.123a.391.391 0 0 1 .111.266.35.35 0 0 1-.04.175c-.082.157-.183.348-.306.574a9.907 9.907 0 0 1-.936 1.415c-.183.232-.38.444-.59.636-.21.184-.431.335-.662.45-.23.117-.464.175-.702.175a1.61 1.61 0 0 1-.804-.195 1.875 1.875 0 0 1-.59-.523 2.419 2.419 0 0 1-.356-.769 3.974 3.974 0 0 1-.112-.964Zm1.079-6.01a.324.324 0 0 0-.112-.245.32.32 0 0 0-.489 0 .336.336 0 0 0-.102.246c0 .095.034.178.102.246a.331.331 0 0 0 .244.102.333.333 0 0 0 .245-.102.324.324 0 0 0 .112-.246Zm9.942 5.21c-.04.075-.112.212-.213.41a5.646 5.646 0 0 1-.397.676c-.163.247-.36.503-.59.77a5.193 5.193 0 0 1-.794.738c-.299.219-.635.4-1.008.543a3.257 3.257 0 0 1-1.201.216c-.386 0-.729-.072-1.027-.216a2.141 2.141 0 0 1-.764-.584 2.71 2.71 0 0 1-.478-.913 3.873 3.873 0 0 1-.163-1.158c0-.41.058-.793.173-1.149.115-.362.271-.677.468-.943.204-.267.438-.475.702-.626a1.63 1.63 0 0 1 .845-.236c.224 0 .427.041.611.124.183.075.336.177.458.307.129.13.227.274.295.43.074.158.112.315.112.473 0 .15-.021.29-.061.42-.034.13-.082.246-.143.349a.841.841 0 0 1-.193.235.386.386 0 0 1-.509-.03.398.398 0 0 1-.071-.42l.081-.124a.704.704 0 0 0 .122-.42c0-.144-.068-.274-.203-.39a.717.717 0 0 0-.499-.174.988.988 0 0 0-.55.174 1.66 1.66 0 0 0-.447.472c-.129.191-.234.42-.316.687-.074.26-.112.536-.112.83 0 .28.034.547.102.8.068.253.17.479.305.677.136.191.306.345.509.461.211.116.458.175.743.175.366 0 .706-.065 1.018-.195.312-.137.597-.308.855-.513.258-.205.485-.427.682-.666.196-.246.363-.475.498-.687a4.98 4.98 0 0 0 .326-.564c.081-.164.129-.267.142-.308a.301.301 0 0 1 .133-.154.405.405 0 0 1 .213-.061c.116 0 .207.04.275.123a.4.4 0 0 1 .112.277c0 .04-.014.095-.041.164Z"/></svg>