<svg width="165" height="70" viewBox="0 0 165 70" xmlns="http://www.w3.org/2000/svg">
<path d="M19.1052 21.7498L1.73682 39.2498L19.1052 56.7498" stroke="black" stroke-width="2" stroke-linecap="round" stroke-linejoin="round"/>
<path d="M53.8421 21.7498L71.2105 39.2498L53.8421 56.7498" stroke="black" stroke-width="2" stroke-linecap="round" stroke-linejoin="round"/>
<path d="M42.6133 8.82454L27.6993 64.9057C27.4967 65.6678 26.7192 66.12 25.9629 65.9158C25.2066 65.7118 24.7577 64.9283 24.9603 64.1663L39.8743 8.08506C40.077 7.32297 40.8544 6.87072 41.6108 7.07491C42.3672 7.27911 42.816 8.06245 42.6133 8.82454Z"/>
<path d="M39.8742 8.08506C40.0769 7.32297 40.8544 6.87072 41.6107 7.07491C42.3671 7.27911 42.8159 8.06245 42.6133 8.82456L40.7969 15.655L38.0579 14.9155L39.8742 8.08506Z" />
<path d="M44.6278 12.2893L50.1058 13.7683" stroke="black" stroke-width="1.5" stroke-linecap="round"/>
<path d="M30.9325 8.59204L36.4107 10.071" stroke="black" stroke-width="1.5" stroke-linecap="round"/>
<path d="M34.1215 2.11963L36.9657 7.03582" stroke="black" stroke-width="1.5" stroke-linecap="round"/>
<path d="M30.545 15.5687L35.4477 12.7441" stroke="black" stroke-width="1.5" stroke-linecap="round"/>
<path d="M43.8997 15.0264L46.7441 19.9426" stroke="black" stroke-width="1.5" stroke-linecap="round"/>
<path d="M45.4179 9.31777L50.3207 6.49316" stroke="black" stroke-width="1.5" stroke-linecap="round"/>
<path d="M95.5541 26.376C94.1091 26.376 92.803 26.054 91.6358 25.41C90.4825 24.766 89.5724 23.877 88.9055 22.743C88.2524 21.595 87.9259 20.314 87.9259 18.9C87.9259 17.486 88.2524 16.212 88.9055 15.078C89.5724 13.93 90.4895 13.034 91.6566 12.39C92.8238 11.746 94.1299 11.424 95.575 11.424C96.6587 11.424 97.6592 11.606 98.5762 11.97C99.4933 12.334 100.271 12.866 100.911 13.566L99.931 14.553C98.7916 13.391 97.3535 12.81 95.6166 12.81C94.4634 12.81 93.4143 13.076 92.4695 13.608C91.5246 14.14 90.7813 14.868 90.2394 15.792C89.7114 16.716 89.4474 17.752 89.4474 18.9C89.4474 20.048 89.7114 21.084 90.2394 22.008C90.7813 22.932 91.5246 23.66 92.4695 24.192C93.4143 24.724 94.4634 24.99 95.6166 24.99C97.3674 24.99 98.8055 24.402 99.931 23.226L100.911 24.213C100.271 24.913 99.4863 25.452 98.5554 25.83C97.6383 26.194 96.6379 26.376 95.5541 26.376ZM107.878 26.355C106.822 26.355 105.871 26.117 105.023 25.641C104.175 25.151 103.509 24.479 103.022 23.625C102.536 22.771 102.293 21.805 102.293 20.727C102.293 19.649 102.536 18.683 103.022 17.829C103.509 16.975 104.175 16.31 105.023 15.834C105.871 15.358 106.822 15.12 107.878 15.12C108.934 15.12 109.886 15.358 110.734 15.834C111.581 16.31 112.241 16.975 112.714 17.829C113.2 18.683 113.443 19.649 113.443 20.727C113.443 21.805 113.2 22.771 112.714 23.625C112.241 24.479 111.581 25.151 110.734 25.641C109.886 26.117 108.934 26.355 107.878 26.355ZM107.878 25.032C108.657 25.032 109.351 24.857 109.963 24.507C110.588 24.143 111.074 23.632 111.422 22.974C111.769 22.316 111.943 21.567 111.943 20.727C111.943 19.887 111.769 19.138 111.422 18.48C111.074 17.822 110.588 17.318 109.963 16.968C109.351 16.604 108.657 16.422 107.878 16.422C107.1 16.422 106.399 16.604 105.773 16.968C105.162 17.318 104.676 17.822 104.314 18.48C103.967 19.138 103.793 19.887 103.793 20.727C103.793 21.567 103.967 22.316 104.314 22.974C104.676 23.632 105.162 24.143 105.773 24.507C106.399 24.857 107.1 25.032 107.878 25.032ZM126.469 10.668V26.25H125.051V24.066C124.607 24.808 124.016 25.375 123.28 25.767C122.557 26.159 121.737 26.355 120.82 26.355C119.792 26.355 118.861 26.117 118.027 25.641C117.194 25.165 116.541 24.5 116.068 23.646C115.596 22.792 115.36 21.819 115.36 20.727C115.36 19.635 115.596 18.662 116.068 17.808C116.541 16.954 117.194 16.296 118.027 15.834C118.861 15.358 119.792 15.12 120.82 15.12C121.71 15.12 122.509 15.309 123.217 15.687C123.94 16.051 124.53 16.59 124.989 17.304V10.668H126.469ZM120.945 25.032C121.71 25.032 122.397 24.857 123.009 24.507C123.634 24.143 124.12 23.632 124.468 22.974C124.829 22.316 125.01 21.567 125.01 20.727C125.01 19.887 124.829 19.138 124.468 18.48C124.12 17.822 123.634 17.318 123.009 16.968C122.397 16.604 121.71 16.422 120.945 16.422C120.167 16.422 119.466 16.604 118.84 16.968C118.229 17.318 117.743 17.822 117.381 18.48C117.034 19.138 116.86 19.887 116.86 20.727C116.86 21.567 117.034 22.316 117.381 22.974C117.743 23.632 118.229 24.143 118.84 24.507C119.466 24.857 120.167 25.032 120.945 25.032ZM130.59 15.204H132.069V26.25H130.59V15.204ZM131.34 12.789C131.034 12.789 130.777 12.684 130.569 12.474C130.36 12.264 130.256 12.012 130.256 11.718C130.256 11.438 130.36 11.193 130.569 10.983C130.777 10.773 131.034 10.668 131.34 10.668C131.646 10.668 131.903 10.773 132.111 10.983C132.32 11.179 132.424 11.417 132.424 11.697C132.424 12.005 132.32 12.264 132.111 12.474C131.903 12.684 131.646 12.789 131.34 12.789ZM141.773 15.12C143.148 15.12 144.239 15.526 145.045 16.338C145.865 17.136 146.275 18.305 146.275 19.845V26.25H144.795V19.992C144.795 18.844 144.51 17.969 143.94 17.367C143.371 16.765 142.558 16.464 141.502 16.464C140.321 16.464 139.383 16.821 138.688 17.535C138.007 18.235 137.667 19.208 137.667 20.454V26.25H136.187V15.204H137.604V17.241C138.007 16.569 138.563 16.051 139.272 15.687C139.994 15.309 140.828 15.12 141.773 15.12ZM160.483 15.204V24.906C160.483 26.782 160.024 28.168 159.107 29.064C158.204 29.974 156.835 30.429 155.001 30.429C153.987 30.429 153.021 30.275 152.104 29.967C151.201 29.673 150.465 29.26 149.895 28.728L150.645 27.594C151.173 28.07 151.813 28.441 152.563 28.707C153.327 28.973 154.126 29.106 154.96 29.106C156.349 29.106 157.37 28.777 158.023 28.119C158.677 27.475 159.003 26.467 159.003 25.095V23.688C158.545 24.388 157.94 24.92 157.19 25.284C156.453 25.648 155.634 25.83 154.73 25.83C153.702 25.83 152.764 25.606 151.917 25.158C151.083 24.696 150.423 24.059 149.937 23.247C149.464 22.421 149.228 21.49 149.228 20.454C149.228 19.418 149.464 18.494 149.937 17.682C150.423 16.87 151.083 16.24 151.917 15.792C152.75 15.344 153.688 15.12 154.73 15.12C155.661 15.12 156.502 15.309 157.252 15.687C158.003 16.065 158.607 16.611 159.066 17.325V15.204H160.483ZM154.876 24.507C155.668 24.507 156.384 24.339 157.023 24.003C157.662 23.653 158.155 23.17 158.503 22.554C158.864 21.938 159.045 21.238 159.045 20.454C159.045 19.67 158.864 18.977 158.503 18.375C158.155 17.759 157.662 17.283 157.023 16.947C156.398 16.597 155.682 16.422 154.876 16.422C154.084 16.422 153.369 16.59 152.73 16.926C152.104 17.262 151.611 17.738 151.25 18.354C150.902 18.97 150.729 19.67 150.729 20.454C150.729 21.238 150.902 21.938 151.25 22.554C151.611 23.17 152.104 23.653 152.73 24.003C153.369 24.339 154.084 24.507 154.876 24.507Z" />
<path d="M135.399 41.0429C135.107 41.4736 134.782 41.9897 134.422 42.5913C134.063 43.1928 133.679 43.8662 133.272 44.6113C132.926 45.2335 132.583 45.8965 132.244 46.6006C131.912 47.2978 131.593 47.9916 131.288 48.6822C130.982 49.3657 130.701 50.0253 130.443 50.6611C130.185 51.29 129.961 51.8472 129.771 52.3325C129.581 52.811 129.432 53.1972 129.324 53.4912C129.215 53.7784 129.161 53.9254 129.161 53.9322C129.093 54.103 128.971 54.1884 128.794 54.1884C128.706 54.1884 128.628 54.1611 128.56 54.1065C128.492 54.0449 128.448 53.9696 128.428 53.8809C128.428 53.8741 128.394 53.7304 128.326 53.4502C128.265 53.1631 128.18 52.7837 128.072 52.312C127.963 51.8334 127.838 51.2865 127.695 50.6714C127.56 50.0493 127.414 49.4034 127.258 48.7335C127.108 48.0566 126.956 47.373 126.8 46.6826C126.644 45.9921 126.498 45.3358 126.362 44.7139C125.908 46.0059 125.449 47.1509 124.988 48.149C124.534 49.1402 124.065 50.0048 123.584 50.7432C123.102 51.4747 122.603 52.0898 122.088 52.5889C121.579 53.0878 121.043 53.4912 120.48 53.7988C119.924 54.0997 119.337 54.3149 118.719 54.4448C118.109 54.5746 117.461 54.6397 116.776 54.6397C116.423 54.6397 116.046 54.5986 115.646 54.5165C115.246 54.4414 114.849 54.3217 114.455 54.1578C114.062 53.9936 113.685 53.7885 113.325 53.5425C112.966 53.2964 112.647 53.0059 112.369 52.671C112.091 52.329 111.87 51.9463 111.707 51.5224C111.545 51.0918 111.463 50.6133 111.463 50.0869C111.463 49.5332 111.579 49.0273 111.809 48.5693C112.04 48.1045 112.352 47.708 112.746 47.3798C113.139 47.0449 113.593 46.7852 114.109 46.6006C114.632 46.4159 115.181 46.3237 115.758 46.3237C116.178 46.3237 116.555 46.3613 116.887 46.4366C117.227 46.5048 117.525 46.5937 117.783 46.7031C118.041 46.8125 118.261 46.9322 118.444 47.062C118.628 47.1919 118.78 47.3116 118.902 47.421C119.025 47.5303 119.113 47.6259 119.167 47.708C119.221 47.7832 119.252 47.8208 119.259 47.8208C119.299 47.8959 119.32 47.9678 119.32 48.0361C119.32 48.1318 119.282 48.2207 119.208 48.3028C119.14 48.3847 119.048 48.4258 118.933 48.4258C118.797 48.4258 118.689 48.3677 118.607 48.2515C118.601 48.2447 118.546 48.1831 118.444 48.0669C118.343 47.9439 118.176 47.8105 117.946 47.667C117.715 47.5233 117.417 47.3935 117.05 47.2773C116.691 47.1611 116.25 47.103 115.727 47.103C115.252 47.103 114.801 47.1782 114.374 47.3286C113.953 47.4722 113.583 47.6772 113.265 47.9439C112.952 48.2104 112.701 48.5284 112.511 48.8974C112.328 49.2597 112.237 49.6597 112.237 50.0972C112.237 50.5277 112.308 50.921 112.45 51.2764C112.593 51.6318 112.783 51.9496 113.02 52.23C113.258 52.5103 113.533 52.7529 113.845 52.958C114.157 53.1631 114.482 53.334 114.822 53.4707C115.161 53.6006 115.5 53.6996 115.839 53.768C116.185 53.8296 116.511 53.8603 116.816 53.8603C117.332 53.8603 117.834 53.8228 118.322 53.7476C118.818 53.6655 119.303 53.5152 119.778 53.2964C120.259 53.0777 120.731 52.7768 121.192 52.3941C121.654 52.0112 122.111 51.5121 122.566 50.897C123.021 50.2817 123.468 49.54 123.909 48.6719C124.357 47.8037 124.805 46.7784 125.253 45.5957C125.389 45.2403 125.521 44.8574 125.65 44.4472C125.779 44.0372 125.911 43.6235 126.047 43.2066C125.931 42.605 125.846 42.0922 125.792 41.6684C125.745 41.2447 125.721 40.8926 125.721 40.6122C125.721 40.3116 125.745 40.0722 125.792 39.8946C125.84 39.7168 125.901 39.5834 125.975 39.4947C126.05 39.399 126.131 39.3409 126.22 39.3204C126.308 39.2929 126.393 39.2793 126.474 39.2793C126.542 39.2793 126.616 39.2929 126.698 39.3204C126.786 39.3477 126.864 39.4091 126.932 39.5048C127.007 39.5937 127.068 39.7271 127.115 39.9047C127.163 40.0825 127.186 40.3217 127.186 40.6226C127.186 40.9507 127.156 41.3301 127.095 41.7608C127.034 42.1914 126.942 42.6666 126.82 43.186C126.908 43.603 127.01 44.0678 127.125 44.5805C127.241 45.0933 127.359 45.6265 127.481 46.1802C127.604 46.7271 127.729 47.2876 127.858 47.8618C127.987 48.436 128.112 48.9965 128.235 49.5434C128.357 50.0902 128.472 50.6133 128.581 51.1122C128.696 51.6113 128.801 52.0625 128.896 52.4659C129.079 52.0009 129.303 51.4404 129.568 50.7841C129.832 50.121 130.128 49.4203 130.453 48.6822C130.779 47.937 131.121 47.1816 131.481 46.4159C131.847 45.6435 132.221 44.9155 132.6 44.2319C133.136 43.2612 133.628 42.4307 134.076 41.7403C134.524 41.0429 134.911 40.4687 135.236 40.0176C135.562 39.5664 135.816 39.2348 135.999 39.0229C136.189 38.8041 136.291 38.6846 136.305 38.6641C136.379 38.5889 136.471 38.5513 136.58 38.5513C136.695 38.5513 136.787 38.5922 136.854 38.6743C136.929 38.7495 136.966 38.8384 136.966 38.941C136.966 38.9888 136.956 39.0365 136.936 39.0845C136.936 39.0913 136.895 39.1939 136.814 39.3921C136.739 39.5834 136.641 39.8501 136.519 40.1919C136.403 40.5268 136.274 40.9234 136.132 41.3814C135.989 41.8325 135.85 42.3213 135.715 42.8477C135.579 43.3671 135.457 43.9141 135.348 44.4883C135.246 45.0557 135.172 45.623 135.124 46.1904C135.104 46.4502 135.087 46.7236 135.073 47.0108C135.06 47.2909 135.053 47.5746 135.053 47.8618C135.053 48.3129 135.073 48.7676 135.114 49.2256C135.155 49.6835 135.223 50.1245 135.318 50.5484C135.413 50.9722 135.542 51.3721 135.704 51.748C135.867 52.1171 136.067 52.4419 136.305 52.7222C136.542 53.0024 136.824 53.228 137.149 53.399C137.482 53.5698 137.865 53.6622 138.3 53.6758C138.408 53.6826 138.493 53.7304 138.554 53.8193C138.622 53.9014 138.656 53.9903 138.656 54.0858C138.656 54.1816 138.618 54.2671 138.544 54.3422C138.469 54.4175 138.381 54.4551 138.279 54.4551C138.17 54.4551 138.062 54.4448 137.953 54.4243C137.465 54.3559 137.034 54.2159 136.661 54.0039C136.288 53.7852 135.966 53.5185 135.694 53.204C135.423 52.8829 135.195 52.5205 135.012 52.1171C134.836 51.7071 134.693 51.2696 134.585 50.8046C134.476 50.3398 134.398 49.8578 134.351 49.3589C134.31 48.853 134.29 48.3437 134.29 47.831C134.29 47.2227 134.32 46.6142 134.381 46.0059C134.442 45.3974 134.524 44.8061 134.626 44.2319C134.727 43.6509 134.846 43.0902 134.982 42.5504C135.117 42.0103 135.257 41.5079 135.399 41.0429ZM147.113 51.3891C147.085 51.4439 147.028 51.5601 146.94 51.7379C146.858 51.9087 146.75 52.1069 146.614 52.3325C146.485 52.5581 146.332 52.794 146.156 53.04C145.979 53.2861 145.783 53.5117 145.566 53.7168C145.349 53.9219 145.115 54.0928 144.863 54.2295C144.612 54.3594 144.348 54.4243 144.07 54.4243C143.676 54.4243 143.344 54.2978 143.072 54.0449C142.808 53.792 142.614 53.474 142.492 53.0913C142.262 53.4809 141.987 53.792 141.668 54.0244C141.349 54.25 141.03 54.3629 140.711 54.3629C140.46 54.3629 140.233 54.3184 140.029 54.2295C139.826 54.1338 139.653 54.0039 139.51 53.8398C139.368 53.669 139.256 53.4707 139.175 53.2451C139.1 53.0196 139.063 52.7733 139.063 52.5068C139.063 51.9736 139.151 51.5053 139.327 51.1021C139.51 50.6919 139.741 50.3501 140.019 50.0766C140.297 49.8032 140.603 49.5981 140.935 49.4615C141.274 49.3246 141.6 49.2564 141.912 49.2564C142.122 49.2564 142.316 49.2872 142.492 49.3486C142.669 49.4034 142.818 49.4648 142.94 49.5332C143.069 49.6016 143.167 49.6666 143.235 49.728C143.303 49.7828 143.34 49.8134 143.347 49.8204C143.422 49.9091 143.459 50.0015 143.459 50.0972C143.459 50.1996 143.422 50.292 143.347 50.3741C143.272 50.4492 143.184 50.4868 143.083 50.4868C142.974 50.4868 142.882 50.4492 142.808 50.3741C142.794 50.3603 142.764 50.3365 142.716 50.3022C142.669 50.2612 142.604 50.2203 142.523 50.1791C142.441 50.1382 142.343 50.1041 142.228 50.0766C142.119 50.0425 141.994 50.0253 141.851 50.0253C141.641 50.0253 141.417 50.0733 141.18 50.169C140.942 50.2647 140.725 50.415 140.528 50.6201C140.331 50.8184 140.165 51.0713 140.029 51.3789C139.901 51.6796 139.836 52.0385 139.836 52.4555C139.836 52.5854 139.85 52.7187 139.877 52.8554C139.904 52.9853 139.951 53.105 140.019 53.2143C140.087 53.3237 140.179 53.4126 140.294 53.4809C140.409 53.5493 140.552 53.5834 140.722 53.5834C140.844 53.5834 140.983 53.5425 141.139 53.4604C141.302 53.3785 141.454 53.252 141.597 53.081C141.746 52.9102 141.878 52.6948 141.994 52.4351C142.116 52.1754 142.2 51.8677 142.248 51.5121C142.262 51.4166 142.306 51.3378 142.38 51.2764C142.455 51.208 142.543 51.1738 142.645 51.1738C142.74 51.1738 142.821 51.2115 142.889 51.2865C142.964 51.3618 143.004 51.4472 143.011 51.5429C143.018 51.6728 143.032 51.8574 143.052 52.0966C143.072 52.329 143.116 52.5616 143.184 52.794C143.259 53.0264 143.367 53.228 143.51 53.399C143.652 53.5698 143.849 53.6553 144.1 53.6553C144.263 53.6553 144.422 53.6109 144.579 53.522C144.741 53.4331 144.897 53.3169 145.047 53.1734C145.203 53.0229 145.349 52.8554 145.484 52.671C145.627 52.4795 145.756 52.2881 145.871 52.0966C145.986 51.9053 146.088 51.7207 146.176 51.5429C146.265 51.3653 146.339 51.2115 146.4 51.0816C146.434 51.0064 146.482 50.9483 146.543 50.9071C146.61 50.8662 146.682 50.8457 146.756 50.8457C146.872 50.8457 146.963 50.8902 147.031 50.9791C147.106 51.061 147.143 51.1499 147.143 51.2456C147.143 51.2934 147.133 51.3413 147.113 51.3891ZM150.094 55.2548C151.37 53.5801 152.255 52.189 152.751 51.0816C152.784 51.0064 152.829 50.9516 152.883 50.9175C152.944 50.8765 153.012 50.8559 153.086 50.8559C153.202 50.8559 153.297 50.897 153.371 50.9791C153.446 51.0541 153.483 51.143 153.483 51.2456C153.483 51.2934 153.473 51.3413 153.453 51.3891C153.154 52.0728 152.73 52.8349 152.181 53.6758C151.631 54.5165 150.936 55.4668 150.094 56.5264C150.094 56.9571 150.098 57.3877 150.104 57.8184C150.111 58.2491 150.115 58.7207 150.115 59.2335C150.115 59.746 150.101 60.252 150.074 60.7509C150.054 61.2568 150.013 61.7353 149.952 62.1866C149.891 62.6446 149.806 63.0649 149.698 63.4478C149.596 63.8374 149.46 64.1723 149.29 64.4527C149.128 64.7397 148.927 64.9619 148.69 65.1191C148.459 65.2832 148.185 65.3653 147.866 65.3653C147.411 65.3653 147.062 65.191 146.817 64.8422C146.573 64.4936 146.451 63.998 146.451 63.3554C146.451 63.0136 146.482 62.6411 146.543 62.2379C146.61 61.8413 146.705 61.4311 146.828 61.0073C146.95 60.5834 147.096 60.1527 147.265 59.7152C147.442 59.2847 147.635 58.8642 147.845 58.454C148.056 58.044 148.283 57.6509 148.527 57.2749C148.778 56.899 149.043 56.5572 149.321 56.2495C149.328 55.7709 149.331 55.296 149.331 54.8242C149.338 54.3525 149.348 53.9184 149.362 53.522C149.158 53.7817 148.914 53.9868 148.629 54.1371C148.351 54.2876 148.073 54.3629 147.795 54.3629C147.557 54.3629 147.34 54.3184 147.143 54.2295C146.953 54.1338 146.79 54.0039 146.655 53.8398C146.519 53.669 146.414 53.4707 146.339 53.2451C146.265 53.0196 146.227 52.7733 146.227 52.5068C146.227 51.9736 146.315 51.5053 146.492 51.1021C146.675 50.6919 146.906 50.3501 147.184 50.0766C147.462 49.8032 147.767 49.5981 148.1 49.4615C148.439 49.3246 148.765 49.2564 149.077 49.2564C149.287 49.2564 149.48 49.2837 149.657 49.3384C149.833 49.393 149.982 49.4546 150.104 49.5229C150.233 49.5913 150.332 49.6562 150.4 49.7178C150.468 49.7793 150.505 49.8134 150.512 49.8204C150.586 49.9023 150.624 49.9947 150.624 50.0972C150.624 50.1996 150.586 50.292 150.512 50.3741C150.437 50.4492 150.349 50.4868 150.247 50.4868C150.152 50.4868 150.06 50.4492 149.972 50.3741C149.945 50.3534 149.908 50.3261 149.86 50.292C149.82 50.2509 149.762 50.2099 149.687 50.169C149.619 50.1279 149.535 50.0937 149.433 50.0664C149.338 50.0391 149.223 50.0253 149.087 50.0253C148.883 50.0253 148.659 50.0733 148.415 50.169C148.171 50.2579 147.944 50.4014 147.733 50.5997C147.523 50.7978 147.347 51.0541 147.204 51.3686C147.062 51.6763 146.991 52.0488 146.991 52.4863C146.991 52.8145 147.062 53.081 147.204 53.2861C147.347 53.4844 147.567 53.5834 147.866 53.5834C148.008 53.5834 148.157 53.5425 148.313 53.4604C148.476 53.3785 148.632 53.252 148.782 53.081C148.931 52.9102 149.06 52.6948 149.168 52.4351C149.284 52.1754 149.365 51.8677 149.413 51.5121C149.426 51.4166 149.47 51.3378 149.545 51.2764C149.619 51.208 149.708 51.1738 149.809 51.1738C149.925 51.1738 150.013 51.2148 150.074 51.2969C150.142 51.3789 150.176 51.4712 150.176 51.5737C150.176 51.5805 150.172 51.6866 150.166 51.8915C150.159 52.0898 150.152 52.3565 150.145 52.6914C150.139 53.0264 150.128 53.4159 150.115 53.8603C150.108 54.2978 150.101 54.7627 150.094 55.2548ZM149.321 57.5004C149.002 57.9448 148.714 58.4267 148.456 58.9463C148.198 59.4727 147.978 60.0024 147.795 60.5356C147.611 61.0689 147.469 61.5849 147.367 62.084C147.272 62.5898 147.224 63.0409 147.224 63.4375C147.224 63.6904 147.245 63.8921 147.286 64.0425C147.333 64.1928 147.387 64.309 147.448 64.3911C147.516 64.4731 147.587 64.5277 147.662 64.5552C147.744 64.5825 147.818 64.5962 147.886 64.5962C148.096 64.5962 148.279 64.5108 148.436 64.3398C148.592 64.169 148.724 63.9399 148.832 63.6527C148.941 63.3726 149.029 63.0478 149.097 62.6787C149.165 62.3096 149.216 61.9267 149.25 61.5303C149.284 61.1406 149.307 60.7509 149.321 60.3613C149.335 59.9716 149.341 59.6129 149.341 59.2847C149.341 58.9907 149.341 58.6967 149.341 58.4027C149.341 58.1089 149.335 57.8081 149.321 57.5004ZM154.42 46.2007C154.42 46.4604 154.328 46.6826 154.145 46.8671C153.968 47.0449 153.751 47.1338 153.493 47.1338C153.236 47.1338 153.015 47.0449 152.832 46.8671C152.656 46.6826 152.567 46.4604 152.567 46.2007C152.567 46.0708 152.591 45.9511 152.639 45.8418C152.686 45.7256 152.751 45.6265 152.832 45.5444C152.92 45.4555 153.019 45.3871 153.127 45.3393C153.242 45.2916 153.365 45.2676 153.493 45.2676C153.622 45.2676 153.741 45.2916 153.85 45.3393C153.965 45.3871 154.063 45.4555 154.145 45.5444C154.233 45.6265 154.301 45.7256 154.348 45.8418C154.396 45.9511 154.42 46.0708 154.42 46.2007ZM152.771 52.2095C152.771 51.2251 152.832 50.2441 152.954 49.2665C152.968 49.171 153.008 49.0889 153.076 49.0205C153.151 48.9454 153.246 48.9078 153.361 48.9078C153.463 48.9078 153.548 48.9487 153.616 49.0308C153.683 49.1059 153.717 49.1948 153.717 49.2973C153.717 49.3384 153.707 49.4615 153.687 49.6666C153.673 49.8715 153.653 50.1177 153.626 50.4047C153.605 50.6851 153.585 50.9859 153.565 51.3072C153.551 51.6215 153.544 51.9122 153.544 52.1787C153.544 52.5409 153.578 52.8349 153.646 53.0605C153.721 53.2793 153.812 53.4502 153.921 53.5733C154.036 53.6963 154.155 53.7784 154.277 53.8193C154.406 53.8603 154.528 53.8809 154.643 53.8809C154.833 53.8809 155.03 53.8125 155.234 53.6758C155.437 53.5391 155.644 53.3477 155.854 53.1016C156.072 52.8554 156.289 52.5616 156.506 52.2196C156.723 51.871 156.937 51.4848 157.147 51.061C157.181 50.9927 157.228 50.9414 157.289 50.9071C157.35 50.8662 157.418 50.8457 157.493 50.8457C157.601 50.8457 157.69 50.8867 157.758 50.9687C157.832 51.0508 157.869 51.1397 157.869 51.2353C157.869 51.3037 157.856 51.3618 157.829 51.4097C157.747 51.5669 157.646 51.7583 157.523 51.9839C157.401 52.2095 157.262 52.4419 157.106 52.6811C156.95 52.9203 156.777 53.1597 156.587 53.399C156.404 53.6314 156.207 53.8433 155.997 54.0347C155.787 54.2192 155.566 54.3697 155.335 54.4859C155.105 54.6021 154.871 54.6602 154.633 54.6602C154.328 54.6602 154.06 54.5953 153.829 54.4652C153.598 54.3354 153.402 54.1611 153.239 53.9423C153.083 53.7236 152.964 53.4672 152.883 53.1734C152.808 52.8726 152.771 52.5513 152.771 52.2095ZM153.85 46.2007C153.85 46.105 153.812 46.0229 153.738 45.9546C153.67 45.8794 153.588 45.8418 153.493 45.8418C153.398 45.8418 153.317 45.8794 153.249 45.9546C153.181 46.0229 153.147 46.105 153.147 46.2007C153.147 46.2964 153.181 46.3785 153.249 46.4467C153.317 46.5152 153.398 46.5493 153.493 46.5493C153.588 46.5493 153.67 46.5152 153.738 46.4467C153.812 46.3785 153.85 46.2964 153.85 46.2007ZM163.792 51.4097C163.752 51.4848 163.68 51.6215 163.579 51.8198C163.484 52.018 163.351 52.2436 163.182 52.4965C163.019 52.7427 162.822 52.9991 162.592 53.2656C162.361 53.5321 162.096 53.7784 161.798 54.0039C161.499 54.2227 161.163 54.4038 160.79 54.5473C160.424 54.691 160.024 54.7627 159.589 54.7627C159.203 54.7627 158.86 54.691 158.562 54.5473C158.263 54.4106 158.009 54.2159 157.798 53.9628C157.588 53.7031 157.428 53.399 157.32 53.0504C157.211 52.7016 157.157 52.3154 157.157 51.8915C157.157 51.4815 157.215 51.0986 157.33 50.7432C157.445 50.3809 157.601 50.0664 157.798 49.7997C158.002 49.5332 158.236 49.3246 158.5 49.1743C158.765 49.0171 159.047 48.9384 159.345 48.9384C159.569 48.9384 159.772 48.9795 159.956 49.0616C160.139 49.1367 160.292 49.2392 160.414 49.3691C160.543 49.4991 160.641 49.6426 160.709 49.7997C160.783 49.9571 160.821 50.1142 160.821 50.2715C160.821 50.4219 160.8 50.562 160.76 50.6919C160.726 50.8217 160.678 50.9379 160.617 51.0405C160.563 51.1362 160.498 51.2148 160.424 51.2764C160.349 51.331 160.275 51.3585 160.2 51.3585C160.085 51.3585 159.99 51.3208 159.915 51.2456C159.847 51.1703 159.813 51.0781 159.813 50.9687C159.813 50.9141 159.823 50.8662 159.844 50.8252C159.871 50.7841 159.898 50.7432 159.925 50.7022C159.959 50.6543 159.986 50.5997 160.007 50.5381C160.034 50.4696 160.047 50.3842 160.047 50.2817C160.047 50.1382 159.979 50.0083 159.844 49.8921C159.715 49.7759 159.549 49.7178 159.345 49.7178C159.155 49.7178 158.972 49.7759 158.795 49.8921C158.626 50.0083 158.477 50.1655 158.348 50.3638C158.219 50.5552 158.114 50.7841 158.032 51.0508C157.958 51.3105 157.92 51.5874 157.92 51.8814C157.92 52.1615 157.954 52.4282 158.022 52.6811C158.09 52.934 158.192 53.1597 158.327 53.3578C158.463 53.5493 158.633 53.7031 158.836 53.8193C159.047 53.9355 159.294 53.9936 159.579 53.9936C159.945 53.9936 160.285 53.9287 160.597 53.7988C160.909 53.6622 161.194 53.4912 161.452 53.2861C161.71 53.081 161.937 52.8589 162.134 52.6197C162.33 52.3735 162.497 52.1446 162.632 51.9326C162.775 51.7139 162.883 51.5259 162.958 51.3686C163.039 51.2046 163.087 51.1021 163.1 51.061C163.128 50.9927 163.172 50.9414 163.233 50.9071C163.3 50.8662 163.372 50.8457 163.446 50.8457C163.562 50.8457 163.653 50.8867 163.721 50.9687C163.796 51.0508 163.833 51.143 163.833 51.2456C163.833 51.2865 163.819 51.3413 163.792 51.4097Z"/>
</svg>
