<svg width="95" height="40" viewBox="0 0 95 40" fill="none" xmlns="http://www.w3.org/2000/svg">
<path d="M11 12.4286L1 22.4286L11 32.4286" stroke="black" stroke-width="2" stroke-linecap="round" stroke-linejoin="round"/>
<path d="M31 12.4286L41 22.4286L31 32.4286" stroke="black" stroke-width="2" stroke-linecap="round" stroke-linejoin="round"/>
<path d="M24.5349 5.04265L15.9481 37.089C15.8314 37.5245 15.3838 37.783 14.9483 37.6663C14.5129 37.5496 14.2544 37.102 14.3711 36.6665L22.9579 4.62008C23.0746 4.1846 23.5222 3.92617 23.9577 4.04285C24.3932 4.15954 24.6516 4.60716 24.5349 5.04265Z"/>
<path d="M22.9579 4.62008C23.0746 4.1846 23.5222 3.92617 23.9577 4.04285C24.3932 4.15954 24.6516 4.60716 24.5349 5.04265L23.4891 8.94578L21.9121 8.52321L22.9579 4.62008Z"/>
<path d="M25.6948 7.02249L28.8488 7.86761" stroke="black" stroke-linecap="round"/>
<path d="M17.8096 4.9097L20.9637 5.75482" stroke="black" stroke-linecap="round"/>
<path d="M19.6457 1.21124L21.2833 4.0205" stroke="black" stroke-linecap="round"/>
<path d="M17.5865 8.89651L20.4093 7.28245" stroke="black" stroke-linecap="round"/>
<path d="M25.2756 8.58643L26.9133 11.3957" stroke="black" stroke-linecap="round"/>
<path d="M26.1497 5.32446L28.9725 3.7104" stroke="black" stroke-linecap="round"/>
<path d="M55.016 15.072C54.184 15.072 53.432 14.888 52.76 14.52C52.096 14.152 51.572 13.644 51.188 12.996C50.812 12.34 50.624 11.608 50.624 10.8C50.624 9.992 50.812 9.264 51.188 8.616C51.572 7.96 52.1 7.448 52.772 7.08C53.444 6.712 54.196 6.528 55.028 6.528C55.652 6.528 56.228 6.632 56.756 6.84C57.284 7.048 57.732 7.352 58.1 7.752L57.536 8.316C56.88 7.652 56.052 7.32 55.052 7.32C54.388 7.32 53.784 7.472 53.24 7.776C52.696 8.08 52.268 8.496 51.956 9.024C51.652 9.552 51.5 10.144 51.5 10.8C51.5 11.456 51.652 12.048 51.956 12.576C52.268 13.104 52.696 13.52 53.24 13.824C53.784 14.128 54.388 14.28 55.052 14.28C56.06 14.28 56.888 13.944 57.536 13.272L58.1 13.836C57.732 14.236 57.28 14.544 56.744 14.76C56.216 14.968 55.64 15.072 55.016 15.072ZM62.1118 15.06C61.5038 15.06 60.9558 14.924 60.4678 14.652C59.9798 14.372 59.5958 13.988 59.3158 13.5C59.0358 13.012 58.8958 12.46 58.8958 11.844C58.8958 11.228 59.0358 10.676 59.3158 10.188C59.5958 9.7 59.9798 9.32 60.4678 9.048C60.9558 8.776 61.5038 8.64 62.1118 8.64C62.7198 8.64 63.2678 8.776 63.7558 9.048C64.2438 9.32 64.6238 9.7 64.8958 10.188C65.1758 10.676 65.3158 11.228 65.3158 11.844C65.3158 12.46 65.1758 13.012 64.8958 13.5C64.6238 13.988 64.2438 14.372 63.7558 14.652C63.2678 14.924 62.7198 15.06 62.1118 15.06ZM62.1118 14.304C62.5598 14.304 62.9598 14.204 63.3118 14.004C63.6718 13.796 63.9518 13.504 64.1518 13.128C64.3518 12.752 64.4518 12.324 64.4518 11.844C64.4518 11.364 64.3518 10.936 64.1518 10.56C63.9518 10.184 63.6718 9.896 63.3118 9.696C62.9598 9.488 62.5598 9.384 62.1118 9.384C61.6638 9.384 61.2598 9.488 60.8998 9.696C60.5478 9.896 60.2678 10.184 60.0598 10.56C59.8598 10.936 59.7598 11.364 59.7598 11.844C59.7598 12.324 59.8598 12.752 60.0598 13.128C60.2678 13.504 60.5478 13.796 60.8998 14.004C61.2598 14.204 61.6638 14.304 62.1118 14.304ZM72.8152 6.096V15H71.9992V13.752C71.7432 14.176 71.4032 14.5 70.9792 14.724C70.5632 14.948 70.0912 15.06 69.5632 15.06C68.9712 15.06 68.4352 14.924 67.9552 14.652C67.4752 14.38 67.0992 14 66.8272 13.512C66.5552 13.024 66.4192 12.468 66.4192 11.844C66.4192 11.22 66.5552 10.664 66.8272 10.176C67.0992 9.688 67.4752 9.312 67.9552 9.048C68.4352 8.776 68.9712 8.64 69.5632 8.64C70.0752 8.64 70.5352 8.748 70.9432 8.964C71.3592 9.172 71.6992 9.48 71.9632 9.888V6.096H72.8152ZM69.6352 14.304C70.0752 14.304 70.4712 14.204 70.8232 14.004C71.1832 13.796 71.4632 13.504 71.6632 13.128C71.8712 12.752 71.9752 12.324 71.9752 11.844C71.9752 11.364 71.8712 10.936 71.6632 10.56C71.4632 10.184 71.1832 9.896 70.8232 9.696C70.4712 9.488 70.0752 9.384 69.6352 9.384C69.1872 9.384 68.7832 9.488 68.4232 9.696C68.0712 9.896 67.7912 10.184 67.5832 10.56C67.3832 10.936 67.2832 11.364 67.2832 11.844C67.2832 12.324 67.3832 12.752 67.5832 13.128C67.7912 13.504 68.0712 13.796 68.4232 14.004C68.7832 14.204 69.1872 14.304 69.6352 14.304ZM75.188 8.688H76.04V15H75.188V8.688ZM75.62 7.308C75.444 7.308 75.296 7.248 75.176 7.128C75.056 7.008 74.996 6.864 74.996 6.696C74.996 6.536 75.056 6.396 75.176 6.276C75.296 6.156 75.444 6.096 75.62 6.096C75.796 6.096 75.944 6.156 76.064 6.276C76.184 6.388 76.244 6.524 76.244 6.684C76.244 6.86 76.184 7.008 76.064 7.128C75.944 7.248 75.796 7.308 75.62 7.308ZM81.6267 8.64C82.4187 8.64 83.0467 8.872 83.5107 9.336C83.9827 9.792 84.2187 10.46 84.2187 11.34V15H83.3667V11.424C83.3667 10.768 83.2027 10.268 82.8747 9.924C82.5467 9.58 82.0787 9.408 81.4707 9.408C80.7907 9.408 80.2507 9.612 79.8507 10.02C79.4587 10.42 79.2627 10.976 79.2627 11.688V15H78.4107V8.688H79.2267V9.852C79.4587 9.468 79.7787 9.172 80.1867 8.964C80.6027 8.748 81.0827 8.64 81.6267 8.64ZM92.3992 8.688V14.232C92.3992 15.304 92.1352 16.096 91.6072 16.608C91.0872 17.128 90.2992 17.388 89.2432 17.388C88.6592 17.388 88.1032 17.3 87.5752 17.124C87.0552 16.956 86.6312 16.72 86.3032 16.416L86.7352 15.768C87.0392 16.04 87.4072 16.252 87.8392 16.404C88.2792 16.556 88.7392 16.632 89.2192 16.632C90.0192 16.632 90.6072 16.444 90.9832 16.068C91.3592 15.7 91.5472 15.124 91.5472 14.34V13.536C91.2832 13.936 90.9352 14.24 90.5032 14.448C90.0792 14.656 89.6072 14.76 89.0872 14.76C88.4952 14.76 87.9552 14.632 87.4672 14.376C86.9872 14.112 86.6072 13.748 86.3272 13.284C86.0552 12.812 85.9192 12.28 85.9192 11.688C85.9192 11.096 86.0552 10.568 86.3272 10.104C86.6072 9.64 86.9872 9.28 87.4672 9.024C87.9472 8.768 88.4872 8.64 89.0872 8.64C89.6232 8.64 90.1072 8.748 90.5392 8.964C90.9712 9.18 91.3192 9.492 91.5832 9.9V8.688H92.3992ZM89.1712 14.004C89.6272 14.004 90.0392 13.908 90.4072 13.716C90.7752 13.516 91.0592 13.24 91.2592 12.888C91.4672 12.536 91.5712 12.136 91.5712 11.688C91.5712 11.24 91.4672 10.844 91.2592 10.5C91.0592 10.148 90.7752 9.876 90.4072 9.684C90.0472 9.484 89.6352 9.384 89.1712 9.384C88.7152 9.384 88.3032 9.48 87.9352 9.672C87.5752 9.864 87.2912 10.136 87.0832 10.488C86.8832 10.84 86.7832 11.24 86.7832 11.688C86.7832 12.136 86.8832 12.536 87.0832 12.888C87.2912 13.24 87.5752 13.516 87.9352 13.716C88.3032 13.908 88.7152 14.004 89.1712 14.004Z" />
<path d="M77.957 23.4531C77.7891 23.6992 77.6016 23.9941 77.3945 24.3379C77.1875 24.6816 76.9668 25.0664 76.7324 25.4922C76.5332 25.8477 76.3359 26.2266 76.1406 26.6289C75.9492 27.0273 75.7656 27.4238 75.5898 27.8184C75.4141 28.209 75.252 28.5859 75.1035 28.9492C74.9551 29.3086 74.8262 29.627 74.7168 29.9043C74.6074 30.1777 74.5215 30.3984 74.459 30.5664C74.3965 30.7305 74.3652 30.8145 74.3652 30.8184C74.3262 30.916 74.2559 30.9648 74.1543 30.9648C74.1035 30.9648 74.0586 30.9492 74.0195 30.918C73.9805 30.8828 73.9551 30.8398 73.9434 30.7891C73.9434 30.7852 73.9238 30.7031 73.8848 30.543C73.8496 30.3789 73.8008 30.1621 73.7383 29.8926C73.6758 29.6191 73.6035 29.3066 73.5215 28.9551C73.4434 28.5996 73.3594 28.2305 73.2695 27.8477C73.1836 27.4609 73.0957 27.0703 73.0059 26.6758C72.916 26.2812 72.832 25.9062 72.7539 25.5508C72.4922 26.2891 72.2285 26.9434 71.9629 27.5137C71.7012 28.0801 71.4316 28.5742 71.1543 28.9961C70.877 29.4141 70.5898 29.7656 70.293 30.0508C70 30.3359 69.6914 30.5664 69.3672 30.7422C69.0469 30.9141 68.709 31.0371 68.3535 31.1113C68.002 31.1855 67.6289 31.2227 67.2344 31.2227C67.0312 31.2227 66.8145 31.1992 66.584 31.1523C66.3535 31.1094 66.125 31.041 65.8984 30.9473C65.6719 30.8535 65.4551 30.7363 65.248 30.5957C65.041 30.4551 64.8574 30.2891 64.6973 30.0977C64.5371 29.9023 64.4102 29.6836 64.3164 29.4414C64.2227 29.1953 64.1758 28.9219 64.1758 28.6211C64.1758 28.3047 64.2422 28.0156 64.375 27.7539C64.5078 27.4883 64.6875 27.2617 64.9141 27.0742C65.1406 26.8828 65.4023 26.7344 65.6992 26.6289C66 26.5234 66.3164 26.4707 66.6484 26.4707C66.8906 26.4707 67.1074 26.4922 67.2988 26.5352C67.4941 26.5742 67.666 26.625 67.8145 26.6875C67.9629 26.75 68.0898 26.8184 68.1953 26.8926C68.3008 26.9668 68.3887 27.0352 68.459 27.0977C68.5293 27.1602 68.5801 27.2148 68.6113 27.2617C68.6426 27.3047 68.6602 27.3262 68.6641 27.3262C68.6875 27.3691 68.6992 27.4102 68.6992 27.4492C68.6992 27.5039 68.6777 27.5547 68.6348 27.6016C68.5957 27.6484 68.543 27.6719 68.4766 27.6719C68.3984 27.6719 68.3359 27.6387 68.2891 27.5723C68.2852 27.5684 68.2539 27.5332 68.1953 27.4668C68.1367 27.3965 68.041 27.3203 67.9082 27.2383C67.7754 27.1562 67.6035 27.082 67.3926 27.0156C67.1855 26.9492 66.9316 26.916 66.6309 26.916C66.3574 26.916 66.0977 26.959 65.8516 27.0449C65.6094 27.127 65.3965 27.2441 65.2129 27.3965C65.0332 27.5488 64.8887 27.7305 64.7793 27.9414C64.6738 28.1484 64.6211 28.377 64.6211 28.627C64.6211 28.873 64.6621 29.0977 64.7441 29.3008C64.8262 29.5039 64.9355 29.6855 65.0723 29.8457C65.209 30.0059 65.3672 30.1445 65.5469 30.2617C65.7266 30.3789 65.9141 30.4766 66.1094 30.5547C66.3047 30.6289 66.5 30.6855 66.6953 30.7246C66.8945 30.7598 67.082 30.7773 67.2578 30.7773C67.5547 30.7773 67.8438 30.7559 68.125 30.7129C68.4102 30.666 68.6895 30.5801 68.9629 30.4551C69.2402 30.3301 69.5117 30.1582 69.7773 29.9395C70.043 29.7207 70.3066 29.4355 70.5684 29.084C70.8301 28.7324 71.0879 28.3086 71.3418 27.8125C71.5996 27.3164 71.8574 26.7305 72.1152 26.0547C72.1934 25.8516 72.2695 25.6328 72.3438 25.3984C72.418 25.1641 72.4941 24.9277 72.5723 24.6895C72.5059 24.3457 72.457 24.0527 72.4258 23.8105C72.3984 23.5684 72.3848 23.3672 72.3848 23.207C72.3848 23.0352 72.3984 22.8984 72.4258 22.7969C72.4531 22.6953 72.4883 22.6191 72.5312 22.5684C72.5742 22.5137 72.6211 22.4805 72.6719 22.4688C72.7227 22.4531 72.7715 22.4453 72.8184 22.4453C72.8574 22.4453 72.9004 22.4531 72.9473 22.4688C72.998 22.4844 73.043 22.5195 73.082 22.5742C73.125 22.625 73.1602 22.7012 73.1875 22.8027C73.2148 22.9043 73.2285 23.041 73.2285 23.2129C73.2285 23.4004 73.2109 23.6172 73.1758 23.8633C73.1406 24.1094 73.0879 24.3809 73.0176 24.6777C73.0684 24.916 73.127 25.1816 73.1934 25.4746C73.2598 25.7676 73.3281 26.0723 73.3984 26.3887C73.4688 26.7012 73.541 27.0215 73.6152 27.3496C73.6895 27.6777 73.7617 27.998 73.832 28.3105C73.9023 28.623 73.9688 28.9219 74.0312 29.207C74.0977 29.4922 74.1582 29.75 74.2129 29.9805C74.3184 29.7148 74.4473 29.3945 74.5996 29.0195C74.752 28.6406 74.9219 28.2402 75.1094 27.8184C75.2969 27.3926 75.4941 26.9609 75.7012 26.5234C75.9121 26.082 76.127 25.666 76.3457 25.2754C76.6543 24.7207 76.9375 24.2461 77.1953 23.8516C77.4531 23.4531 77.6758 23.125 77.8633 22.8672C78.0508 22.6094 78.1973 22.4199 78.3027 22.2988C78.4121 22.1738 78.4707 22.1055 78.4785 22.0938C78.5215 22.0508 78.5742 22.0293 78.6367 22.0293C78.7031 22.0293 78.7559 22.0527 78.7949 22.0996C78.8379 22.1426 78.8594 22.1934 78.8594 22.252C78.8594 22.2793 78.8535 22.3066 78.8418 22.334C78.8418 22.3379 78.8184 22.3965 78.7715 22.5098C78.7285 22.6191 78.6719 22.7715 78.6016 22.9668C78.5352 23.1582 78.4609 23.3848 78.3789 23.6465C78.2969 23.9043 78.2168 24.1836 78.1387 24.4844C78.0605 24.7812 77.9902 25.0938 77.9277 25.4219C77.8691 25.7461 77.8262 26.0703 77.7988 26.3945C77.7871 26.543 77.7773 26.6992 77.7695 26.8633C77.7617 27.0234 77.7578 27.1855 77.7578 27.3496C77.7578 27.6074 77.7695 27.8672 77.793 28.1289C77.8164 28.3906 77.8555 28.6426 77.9102 28.8848C77.9648 29.127 78.0391 29.3555 78.1328 29.5703C78.2266 29.7812 78.3418 29.9668 78.4785 30.127C78.6152 30.2871 78.7773 30.416 78.9648 30.5137C79.1562 30.6113 79.377 30.6641 79.627 30.6719C79.6895 30.6758 79.7383 30.7031 79.7734 30.7539C79.8125 30.8008 79.832 30.8516 79.832 30.9062C79.832 30.9609 79.8105 31.0098 79.7676 31.0527C79.7246 31.0957 79.6738 31.1172 79.6152 31.1172C79.5527 31.1172 79.4902 31.1113 79.4277 31.0996C79.1465 31.0605 78.8984 30.9805 78.6836 30.8594C78.4688 30.7344 78.2832 30.582 78.127 30.4023C77.9707 30.2188 77.8398 30.0117 77.7344 29.7812C77.6328 29.5469 77.5508 29.2969 77.4883 29.0312C77.4258 28.7656 77.3809 28.4902 77.3535 28.2051C77.3301 27.916 77.3184 27.625 77.3184 27.332C77.3184 26.9844 77.3359 26.6367 77.3711 26.2891C77.4062 25.9414 77.4531 25.6035 77.5117 25.2754C77.5703 24.9434 77.6387 24.623 77.7168 24.3145C77.7949 24.0059 77.875 23.7188 77.957 23.4531ZM84.7012 29.3652C84.6855 29.3965 84.6523 29.4629 84.6016 29.5645C84.5547 29.6621 84.4922 29.7754 84.4141 29.9043C84.3398 30.0332 84.252 30.168 84.1504 30.3086C84.0488 30.4492 83.9355 30.5781 83.8105 30.6953C83.6855 30.8125 83.5508 30.9102 83.4062 30.9883C83.2617 31.0625 83.1094 31.0996 82.9492 31.0996C82.7227 31.0996 82.5312 31.0273 82.375 30.8828C82.2227 30.7383 82.1113 30.5566 82.041 30.3379C81.9082 30.5605 81.75 30.7383 81.5664 30.8711C81.3828 31 81.1992 31.0645 81.0156 31.0645C80.8711 31.0645 80.7402 31.0391 80.623 30.9883C80.5059 30.9336 80.4062 30.8594 80.3242 30.7656C80.2422 30.668 80.1777 30.5547 80.1309 30.4258C80.0879 30.2969 80.0664 30.1562 80.0664 30.0039C80.0664 29.6992 80.1172 29.4316 80.2188 29.2012C80.3242 28.9668 80.457 28.7715 80.6172 28.6152C80.7773 28.459 80.9531 28.3418 81.1445 28.2637C81.3398 28.1855 81.5273 28.1465 81.707 28.1465C81.8281 28.1465 81.9395 28.1641 82.041 28.1992C82.1426 28.2305 82.2285 28.2656 82.2988 28.3047C82.373 28.3438 82.4297 28.3809 82.4688 28.416C82.5078 28.4473 82.5293 28.4648 82.5332 28.4688C82.5762 28.5195 82.5977 28.5723 82.5977 28.627C82.5977 28.6855 82.5762 28.7383 82.5332 28.7852C82.4902 28.8281 82.4395 28.8496 82.3809 28.8496C82.3184 28.8496 82.2656 28.8281 82.2227 28.7852C82.2148 28.7773 82.1973 28.7637 82.1699 28.7441C82.1426 28.7207 82.1055 28.6973 82.0586 28.6738C82.0117 28.6504 81.9551 28.6309 81.8887 28.6152C81.8262 28.5957 81.7539 28.5859 81.6719 28.5859C81.5508 28.5859 81.4219 28.6133 81.2852 28.668C81.1484 28.7227 81.0234 28.8086 80.9102 28.9258C80.7969 29.0391 80.7012 29.1836 80.623 29.3594C80.5488 29.5312 80.5117 29.7363 80.5117 29.9746C80.5117 30.0488 80.5195 30.125 80.5352 30.2031C80.5508 30.2773 80.5781 30.3457 80.6172 30.4082C80.6562 30.4707 80.709 30.5215 80.7754 30.5605C80.8418 30.5996 80.9238 30.6191 81.0215 30.6191C81.0918 30.6191 81.1719 30.5957 81.2617 30.5488C81.3555 30.502 81.4434 30.4297 81.5254 30.332C81.6113 30.2344 81.6875 30.1113 81.7539 29.9629C81.8242 29.8145 81.873 29.6387 81.9004 29.4355C81.9082 29.3809 81.9336 29.3359 81.9766 29.3008C82.0195 29.2617 82.0703 29.2422 82.1289 29.2422C82.1836 29.2422 82.2305 29.2637 82.2695 29.3066C82.3125 29.3496 82.3359 29.3984 82.3398 29.4531C82.3438 29.5273 82.3516 29.6328 82.3633 29.7695C82.375 29.9023 82.4004 30.0352 82.4395 30.168C82.4824 30.3008 82.5449 30.416 82.627 30.5137C82.709 30.6113 82.8223 30.6602 82.9668 30.6602C83.0605 30.6602 83.1523 30.6348 83.2422 30.584C83.3359 30.5332 83.4258 30.4668 83.5117 30.3848C83.6016 30.2988 83.6855 30.2031 83.7637 30.0977C83.8457 29.9883 83.9199 29.8789 83.9863 29.7695C84.0527 29.6602 84.1113 29.5547 84.1621 29.4531C84.2129 29.3516 84.2559 29.2637 84.291 29.1895C84.3105 29.1465 84.3379 29.1133 84.373 29.0898C84.4121 29.0664 84.4531 29.0547 84.4961 29.0547C84.5625 29.0547 84.6152 29.0801 84.6543 29.1309C84.6973 29.1777 84.7188 29.2285 84.7188 29.2832C84.7188 29.3105 84.7129 29.3379 84.7012 29.3652ZM86.418 31.5742C87.1523 30.6172 87.6621 29.8223 87.9473 29.1895C87.9668 29.1465 87.9922 29.1152 88.0234 29.0957C88.0586 29.0723 88.0977 29.0605 88.1406 29.0605C88.207 29.0605 88.2617 29.084 88.3047 29.1309C88.3477 29.1738 88.3691 29.2246 88.3691 29.2832C88.3691 29.3105 88.3633 29.3379 88.3516 29.3652C88.1797 29.7559 87.9355 30.1914 87.6191 30.6719C87.3027 31.1523 86.9023 31.6953 86.418 32.3008C86.418 32.5469 86.4199 32.793 86.4238 33.0391C86.4277 33.2852 86.4297 33.5547 86.4297 33.8477C86.4297 34.1406 86.4219 34.4297 86.4062 34.7148C86.3945 35.0039 86.3711 35.2773 86.3359 35.5352C86.3008 35.7969 86.252 36.0371 86.1895 36.2559C86.1309 36.4785 86.0527 36.6699 85.9551 36.8301C85.8613 36.9941 85.7461 37.1211 85.6094 37.2109C85.4766 37.3047 85.3184 37.3516 85.1348 37.3516C84.873 37.3516 84.6719 37.252 84.5312 37.0527C84.3906 36.8535 84.3203 36.5703 84.3203 36.2031C84.3203 36.0078 84.3379 35.7949 84.373 35.5645C84.4121 35.3379 84.4668 35.1035 84.5371 34.8613C84.6074 34.6191 84.6914 34.373 84.7891 34.123C84.8906 33.877 85.002 33.6367 85.123 33.4023C85.2441 33.168 85.375 32.9434 85.5156 32.7285C85.6602 32.5137 85.8125 32.3184 85.9727 32.1426C85.9766 31.8691 85.9785 31.5977 85.9785 31.3281C85.9824 31.0586 85.9883 30.8105 85.9961 30.584C85.8789 30.7324 85.7383 30.8496 85.5742 30.9355C85.4141 31.0215 85.2539 31.0645 85.0938 31.0645C84.957 31.0645 84.832 31.0391 84.7188 30.9883C84.6094 30.9336 84.5156 30.8594 84.4375 30.7656C84.3594 30.668 84.2988 30.5547 84.2559 30.4258C84.2129 30.2969 84.1914 30.1562 84.1914 30.0039C84.1914 29.6992 84.2422 29.4316 84.3438 29.2012C84.4492 28.9668 84.582 28.7715 84.7422 28.6152C84.9023 28.459 85.0781 28.3418 85.2695 28.2637C85.4648 28.1855 85.6523 28.1465 85.832 28.1465C85.9531 28.1465 86.0645 28.1621 86.166 28.1934C86.2676 28.2246 86.3535 28.2598 86.4238 28.2988C86.498 28.3379 86.5547 28.375 86.5938 28.4102C86.6328 28.4453 86.6543 28.4648 86.6582 28.4688C86.7012 28.5156 86.7227 28.5684 86.7227 28.627C86.7227 28.6855 86.7012 28.7383 86.6582 28.7852C86.6152 28.8281 86.5645 28.8496 86.5059 28.8496C86.4512 28.8496 86.3984 28.8281 86.3477 28.7852C86.332 28.7734 86.3105 28.7578 86.2832 28.7383C86.2598 28.7148 86.2266 28.6914 86.1836 28.668C86.1445 28.6445 86.0957 28.625 86.0371 28.6094C85.9824 28.5938 85.916 28.5859 85.8379 28.5859C85.7207 28.5859 85.5918 28.6133 85.4512 28.668C85.3105 28.7188 85.1797 28.8008 85.0586 28.9141C84.9375 29.0273 84.8359 29.1738 84.7539 29.3535C84.6719 29.5293 84.6309 29.7422 84.6309 29.9922C84.6309 30.1797 84.6719 30.332 84.7539 30.4492C84.8359 30.5625 84.9629 30.6191 85.1348 30.6191C85.2168 30.6191 85.3027 30.5957 85.3926 30.5488C85.4863 30.502 85.5762 30.4297 85.6621 30.332C85.748 30.2344 85.8223 30.1113 85.8848 29.9629C85.9512 29.8145 85.998 29.6387 86.0254 29.4355C86.0332 29.3809 86.0586 29.3359 86.1016 29.3008C86.1445 29.2617 86.1953 29.2422 86.2539 29.2422C86.3203 29.2422 86.3711 29.2656 86.4062 29.3125C86.4453 29.3594 86.4648 29.4121 86.4648 29.4707C86.4648 29.4746 86.4629 29.5352 86.459 29.6523C86.4551 29.7656 86.4512 29.918 86.4473 30.1094C86.4434 30.3008 86.4375 30.5234 86.4297 30.7773C86.4258 31.0273 86.4219 31.293 86.418 31.5742ZM85.9727 32.8574C85.7891 33.1113 85.623 33.3867 85.4746 33.6836C85.3262 33.9844 85.1992 34.2871 85.0938 34.5918C84.9883 34.8965 84.9062 35.1914 84.8477 35.4766C84.793 35.7656 84.7656 36.0234 84.7656 36.25C84.7656 36.3945 84.7773 36.5098 84.8008 36.5957C84.8281 36.6816 84.8594 36.748 84.8945 36.7949C84.9336 36.8418 84.9746 36.873 85.0176 36.8887C85.0645 36.9043 85.1074 36.9121 85.1465 36.9121C85.2676 36.9121 85.373 36.8633 85.4629 36.7656C85.5527 36.668 85.6289 36.5371 85.6914 36.373C85.7539 36.2129 85.8047 36.0273 85.8438 35.8164C85.8828 35.6055 85.9121 35.3867 85.9316 35.1602C85.9512 34.9375 85.9648 34.7148 85.9727 34.4922C85.9805 34.2695 85.9844 34.0645 85.9844 33.877C85.9844 33.709 85.9844 33.541 85.9844 33.373C85.9844 33.2051 85.9805 33.0332 85.9727 32.8574ZM88.9082 26.4004C88.9082 26.5488 88.8555 26.6758 88.75 26.7812C88.6484 26.8828 88.5234 26.9336 88.375 26.9336C88.2266 26.9336 88.0996 26.8828 87.9941 26.7812C87.8926 26.6758 87.8418 26.5488 87.8418 26.4004C87.8418 26.3262 87.8555 26.2578 87.8828 26.1953C87.9102 26.1289 87.9473 26.0723 87.9941 26.0254C88.0449 25.9746 88.1016 25.9355 88.1641 25.9082C88.2305 25.8809 88.3008 25.8672 88.375 25.8672C88.4492 25.8672 88.5176 25.8809 88.5801 25.9082C88.6465 25.9355 88.7031 25.9746 88.75 26.0254C88.8008 26.0723 88.8398 26.1289 88.8672 26.1953C88.8945 26.2578 88.9082 26.3262 88.9082 26.4004ZM87.959 29.834C87.959 29.2715 87.9941 28.7109 88.0645 28.1523C88.0723 28.0977 88.0957 28.0508 88.1348 28.0117C88.1777 27.9688 88.2324 27.9473 88.2988 27.9473C88.3574 27.9473 88.4062 27.9707 88.4453 28.0176C88.4844 28.0605 88.5039 28.1113 88.5039 28.1699C88.5039 28.1934 88.498 28.2637 88.4863 28.3809C88.4785 28.498 88.4668 28.6387 88.4512 28.8027C88.4395 28.9629 88.4277 29.1348 88.416 29.3184C88.4082 29.498 88.4043 29.6641 88.4043 29.8164C88.4043 30.0234 88.4238 30.1914 88.4629 30.3203C88.5059 30.4453 88.5586 30.543 88.6211 30.6133C88.6875 30.6836 88.7559 30.7305 88.8262 30.7539C88.9004 30.7773 88.9707 30.7891 89.0371 30.7891C89.1465 30.7891 89.2598 30.75 89.377 30.6719C89.4941 30.5938 89.6133 30.4844 89.7344 30.3438C89.8594 30.2031 89.9844 30.0352 90.1094 29.8398C90.2344 29.6406 90.3574 29.4199 90.4785 29.1777C90.498 29.1387 90.5254 29.1094 90.5605 29.0898C90.5957 29.0664 90.6348 29.0547 90.6777 29.0547C90.7402 29.0547 90.791 29.0781 90.8301 29.125C90.873 29.1719 90.8945 29.2227 90.8945 29.2773C90.8945 29.3164 90.8867 29.3496 90.8711 29.377C90.8242 29.4668 90.7656 29.5762 90.6953 29.7051C90.625 29.834 90.5449 29.9668 90.4551 30.1035C90.3652 30.2402 90.2656 30.377 90.1562 30.5137C90.0508 30.6465 89.9375 30.7676 89.8164 30.877C89.6953 30.9824 89.5684 31.0684 89.4355 31.1348C89.3027 31.2012 89.168 31.2344 89.0312 31.2344C88.8555 31.2344 88.7012 31.1973 88.5684 31.123C88.4355 31.0488 88.3223 30.9492 88.2285 30.8242C88.1387 30.6992 88.0703 30.5527 88.0234 30.3848C87.9805 30.2129 87.959 30.0293 87.959 29.834ZM88.5801 26.4004C88.5801 26.3457 88.5586 26.2988 88.5156 26.2598C88.4766 26.2168 88.4297 26.1953 88.375 26.1953C88.3203 26.1953 88.2734 26.2168 88.2344 26.2598C88.1953 26.2988 88.1758 26.3457 88.1758 26.4004C88.1758 26.4551 88.1953 26.502 88.2344 26.541C88.2734 26.5801 88.3203 26.5996 88.375 26.5996C88.4297 26.5996 88.4766 26.5801 88.5156 26.541C88.5586 26.502 88.5801 26.4551 88.5801 26.4004ZM94.3047 29.377C94.2812 29.4199 94.2402 29.498 94.1816 29.6113C94.127 29.7246 94.0508 29.8535 93.9531 29.998C93.8594 30.1387 93.7461 30.2852 93.6133 30.4375C93.4805 30.5898 93.3281 30.7305 93.1562 30.8594C92.9844 30.9844 92.791 31.0879 92.5762 31.1699C92.3652 31.252 92.1348 31.293 91.8848 31.293C91.6621 31.293 91.4648 31.252 91.293 31.1699C91.1211 31.0918 90.9746 30.9805 90.8535 30.8359C90.7324 30.6875 90.6406 30.5137 90.5781 30.3145C90.5156 30.1152 90.4844 29.8945 90.4844 29.6523C90.4844 29.418 90.5176 29.1992 90.584 28.9961C90.6504 28.7891 90.7402 28.6094 90.8535 28.457C90.9707 28.3047 91.1055 28.1855 91.2578 28.0996C91.4102 28.0098 91.5723 27.9648 91.7441 27.9648C91.873 27.9648 91.9902 27.9883 92.0957 28.0352C92.2012 28.0781 92.2891 28.1367 92.3594 28.2109C92.4336 28.2852 92.4902 28.3672 92.5293 28.457C92.5723 28.5469 92.5938 28.6367 92.5938 28.7266C92.5938 28.8125 92.582 28.8926 92.5586 28.9668C92.5391 29.041 92.5117 29.1074 92.4766 29.166C92.4453 29.2207 92.4082 29.2656 92.3652 29.3008C92.3223 29.332 92.2793 29.3477 92.2363 29.3477C92.1699 29.3477 92.1152 29.3262 92.0723 29.2832C92.0332 29.2402 92.0137 29.1875 92.0137 29.125C92.0137 29.0938 92.0195 29.0664 92.0312 29.043C92.0469 29.0195 92.0625 28.9961 92.0781 28.9727C92.0977 28.9453 92.1133 28.9141 92.125 28.8789C92.1406 28.8398 92.1484 28.791 92.1484 28.7324C92.1484 28.6504 92.1094 28.5762 92.0312 28.5098C91.957 28.4434 91.8613 28.4102 91.7441 28.4102C91.6348 28.4102 91.5293 28.4434 91.4277 28.5098C91.3301 28.5762 91.2441 28.666 91.1699 28.7793C91.0957 28.8887 91.0352 29.0195 90.9883 29.1719C90.9453 29.3203 90.9238 29.4785 90.9238 29.6465C90.9238 29.8066 90.9434 29.959 90.9824 30.1035C91.0215 30.248 91.0801 30.377 91.1582 30.4902C91.2363 30.5996 91.334 30.6875 91.4512 30.7539C91.5723 30.8203 91.7148 30.8535 91.8789 30.8535C92.0898 30.8535 92.2852 30.8164 92.4648 30.7422C92.6445 30.6641 92.8086 30.5664 92.957 30.4492C93.1055 30.332 93.2363 30.2051 93.3496 30.0684C93.4629 29.9277 93.5586 29.7969 93.6367 29.6758C93.7188 29.5508 93.7812 29.4434 93.8242 29.3535C93.8711 29.2598 93.8984 29.2012 93.9062 29.1777C93.9219 29.1387 93.9473 29.1094 93.9824 29.0898C94.0215 29.0664 94.0625 29.0547 94.1055 29.0547C94.1719 29.0547 94.2246 29.0781 94.2637 29.125C94.3066 29.1719 94.3281 29.2246 94.3281 29.2832C94.3281 29.3066 94.3203 29.3379 94.3047 29.377Z" />
</svg>
